<svg viewBox="0 0 1040 1480" xmlns="http://www.w3.org/2000/svg" font-family="'JetBrains Mono','Fira Code','Courier New',monospace">
  <defs>
    <filter id="glow" x="-40%" y="-40%" width="180%" height="180%">
      <feGaussianBlur stdDeviation="2" result="b"/>
      <feMerge><feMergeNode in="b"/><feMergeNode in="SourceGraphic"/></feMerge>
    </filter>
    <marker id="aG" viewBox="0 0 10 10" refX="9" refY="5" markerWidth="6.5" markerHeight="6.5" orient="auto-start-reverse">
      <path d="M0,0 L10,5 L0,10 z" fill="#39FF8A"/>
    </marker>
    <marker id="aP" viewBox="0 0 10 10" refX="9" refY="5" markerWidth="6.5" markerHeight="6.5" orient="auto-start-reverse">
      <path d="M0,0 L10,5 L0,10 z" fill="#FF5C8A"/>
    </marker>
    <marker id="aR" viewBox="0 0 10 10" refX="9" refY="5" markerWidth="6.5" markerHeight="6.5" orient="auto-start-reverse">
      <path d="M0,0 L10,5 L0,10 z" fill="#FF5C5C"/>
    </marker>
    <marker id="aA" viewBox="0 0 10 10" refX="9" refY="5" markerWidth="6.5" markerHeight="6.5" orient="auto-start-reverse">
      <path d="M0,0 L10,5 L0,10 z" fill="#FFB84D"/>
    </marker>
    <marker id="aD" viewBox="0 0 10 10" refX="9" refY="5" markerWidth="6.5" markerHeight="6.5" orient="auto-start-reverse">
      <path d="M0,0 L10,5 L0,10 z" fill="#7A94B0"/>
    </marker>
    <pattern id="dots" width="26" height="26" patternUnits="userSpaceOnUse">
      <circle cx="1" cy="1" r="1" fill="#39FF8A" opacity="0.07"/>
    </pattern>
  </defs>

  <!-- ============ BACKGROUND ============ -->
  <rect width="1040" height="1480" fill="#0E1A2B"/>
  <rect width="1040" height="1480" fill="url(#dots)"/>
  <rect x="12" y="12" width="1016" height="1456" fill="none" stroke="#1E3A5F" stroke-width="1.5" rx="6"/>

  <!-- ============ HEADER ============ -->
  <text x="40" y="52" fill="#FF5C8A" font-size="12" letter-spacing="2">// MAD SCIENCE LAB :: ENERGY DIVISION</text>
  <text x="40" y="80" fill="#39FF8A" font-size="22" font-weight="bold" letter-spacing="1" filter="url(#glow)">CONTROL STRATEGIES — DECISION LOGIC</text>
  <text x="40" y="100" fill="#7A94B0" font-size="11">sofar-me3000sp-homeassistant · v2.3.0 · strategie-engine + kwartierpiek-tracker</text>
  <line x1="40" y1="114" x2="1000" y2="114" stroke="#1E3A5F" stroke-width="1"/>

  <!-- ============ SECTION 1: PIPELINE ============ -->
  <text x="40" y="152" fill="#FF5C8A" font-size="11" letter-spacing="2">01 · BESLISSINGSPIPELINE — ELKE TICK, VOOR ELKE STRATEGIE</text>

  <!-- chain boxes -->
  <g font-size="10">
    <g transform="translate(40,168)">
      <rect width="140" height="72" rx="6" fill="#12233B" stroke="#FF5C5C" stroke-width="2" filter="url(#glow)"/>
      <text x="70" y="24" fill="#FF5C5C" font-size="12" font-weight="bold" text-anchor="middle">ALARM</text>
      <text x="70" y="42" fill="#E0E0E0" text-anchor="middle">fault ≠ ok</text>
      <text x="70" y="58" fill="#7A94B0" text-anchor="middle">→ STANDBY, altijd</text>
    </g>
    <line x1="184" y1="204" x2="200" y2="204" stroke="#7A94B0" stroke-width="2" marker-end="url(#aD)"/>
    <g transform="translate(204,168)">
      <rect width="140" height="72" rx="6" fill="#12233B" stroke="#FFB84D" stroke-width="2" filter="url(#glow)"/>
      <text x="70" y="24" fill="#FFB84D" font-size="12" font-weight="bold" text-anchor="middle">FORCE CHARGE</text>
      <text x="70" y="42" fill="#E0E0E0" text-anchor="middle">SOC &lt; kritiek</text>
      <text x="70" y="58" fill="#7A94B0" text-anchor="middle">→ CHARGE, altijd</text>
    </g>
    <line x1="348" y1="204" x2="364" y2="204" stroke="#7A94B0" stroke-width="2" marker-end="url(#aD)"/>
    <g transform="translate(368,168)">
      <rect width="140" height="72" rx="6" fill="#12233B" stroke="#39FF8A" stroke-width="2.5" filter="url(#glow)"/>
      <text x="70" y="24" fill="#39FF8A" font-size="12" font-weight="bold" text-anchor="middle">STRATEGIE</text>
      <text x="70" y="42" fill="#E0E0E0" text-anchor="middle">gekozen modus</text>
      <text x="70" y="58" fill="#7A94B0" text-anchor="middle">zie 02 ↓</text>
    </g>
    <line x1="512" y1="204" x2="528" y2="204" stroke="#7A94B0" stroke-width="2" marker-end="url(#aD)"/>
    <g transform="translate(532,168)">
      <rect width="140" height="72" rx="6" fill="#12233B" stroke="#1E3A5F" stroke-width="2"/>
      <text x="70" y="24" fill="#E0E0E0" font-size="12" font-weight="bold" text-anchor="middle">HOLD</text>
      <text x="70" y="42" fill="#E0E0E0" text-anchor="middle">5–10 min</text>
      <text x="70" y="58" fill="#7A94B0" text-anchor="middle">anti-flapping</text>
    </g>
    <line x1="676" y1="204" x2="692" y2="204" stroke="#7A94B0" stroke-width="2" marker-end="url(#aD)"/>
    <g transform="translate(696,168)">
      <rect width="140" height="72" rx="6" fill="#12233B" stroke="#1E3A5F" stroke-width="2"/>
      <text x="70" y="24" fill="#E0E0E0" font-size="12" font-weight="bold" text-anchor="middle">THROTTLE</text>
      <text x="70" y="42" fill="#E0E0E0" text-anchor="middle">≥ 60 s</text>
      <text x="70" y="58" fill="#7A94B0" text-anchor="middle">&amp; ≥ 200 W delta</text>
    </g>
    <line x1="840" y1="204" x2="856" y2="204" stroke="#39FF8A" stroke-width="2" marker-end="url(#aG)"/>
    <g transform="translate(860,168)">
      <rect width="140" height="72" rx="6" fill="#0A1420" stroke="#FF5C8A" stroke-width="2" filter="url(#glow)"/>
      <text x="70" y="24" fill="#FF5C8A" font-size="12" font-weight="bold" text-anchor="middle">MODBUS</text>
      <text x="70" y="42" fill="#E0E0E0" text-anchor="middle">RS485 → SOFAR</text>
      <text x="70" y="58" fill="#7A94B0" text-anchor="middle">mode + rate</text>
    </g>
  </g>
  <text x="40" y="262" fill="#7A94B0" font-size="10">Hogere gates winnen onvoorwaardelijk: een alarm of kritieke SOC overrulet elke strategie.</text>
  <text x="40" y="277" fill="#7A94B0" font-size="10">HOLD en THROTTLE beschermen relais en batterij tegen mode-flapping.</text>

  <!-- ============ SECTION 2: STRATEGIES ============ -->
  <text x="40" y="312" fill="#FF5C8A" font-size="11" letter-spacing="2">02 · STRATEGIEËN — select.strategy</text>

  <!-- CARD 1: SELF-CONSUMPTION -->
  <g transform="translate(40,330)">
    <rect width="460" height="220" rx="8" fill="#12233B" stroke="#39FF8A" stroke-width="2" filter="url(#glow)"/>
    <text x="18" y="30" fill="#39FF8A" font-size="14" font-weight="bold">ZELFCONSUMPTIE</text>
    <text x="18" y="48" fill="#FF5C8A" font-size="10">self_consumption · default</text>
    <text x="18" y="80" fill="#E0E0E0" font-size="10">· import  → DISCHARGE, dekt tekort</text>
    <text x="18" y="98" fill="#E0E0E0" font-size="10">· export → CHARGE, slikt surplus</text>
    <text x="18" y="116" fill="#E0E0E0" font-size="10">· smoothing-window op P1-meting</text>
    <text x="18" y="134" fill="#E0E0E0" font-size="10">· rate-updates gethrottled</text>
    <text x="18" y="150" fill="#E0E0E0" font-size="10">  per richting</text>
    <!-- visual: zero-axis balance -->
    <g transform="translate(255,60)">
      <rect x="0" y="0" width="185" height="140" rx="4" fill="#0A1420" stroke="#1E3A5F"/>
      <line x1="12" y1="70" x2="173" y2="70" stroke="#7A94B0" stroke-width="1" stroke-dasharray="3,3"/>
      <text x="166" y="66" fill="#7A94B0" font-size="8" text-anchor="end">P1 = 0 W</text>
      <rect x="30" y="30" width="26" height="40" fill="#FF5C8A" opacity="0.75"/>
      <text x="43" y="24" fill="#FF5C8A" font-size="8" text-anchor="middle">IMPORT</text>
      <line x1="66" y1="50" x2="100" y2="50" stroke="#FF5C8A" stroke-width="2" marker-end="url(#aP)"/>
      <text x="132" y="54" fill="#FF5C8A" font-size="8">DISCHARGE</text>
      <rect x="30" y="70" width="26" height="40" fill="#39FF8A" opacity="0.75"/>
      <text x="43" y="124" fill="#39FF8A" font-size="8" text-anchor="middle">EXPORT</text>
      <line x1="66" y1="90" x2="100" y2="90" stroke="#39FF8A" stroke-width="2" marker-end="url(#aG)"/>
      <text x="132" y="94" fill="#39FF8A" font-size="8">CHARGE</text>
    </g>
  </g>

  <!-- CARD 2: PEAK-SHAVING -->
  <g transform="translate(540,330)">
    <rect width="460" height="220" rx="8" fill="#12233B" stroke="#39FF8A" stroke-width="2" filter="url(#glow)"/>
    <text x="18" y="30" fill="#39FF8A" font-size="14" font-weight="bold">PEAK-SHAVING</text>
    <text x="18" y="48" fill="#FF5C8A" font-size="10">peak_shaving · capaciteitstarief</text>
    <text x="18" y="80" fill="#E0E0E0" font-size="10">· stuurt op geprojecteerd</text>
    <text x="18" y="96" fill="#E0E0E0" font-size="10">  kwartiergemiddelde</text>
    <text x="18" y="114" fill="#E0E0E0" font-size="10">· niet op momentaan vermogen</text>
    <text x="18" y="132" fill="#E0E0E0" font-size="10">· ontlaadt exact genoeg om de</text>
    <text x="18" y="148" fill="#E0E0E0" font-size="10">  projectie op de drempel te houden</text>
    <text x="18" y="166" fill="#E0E0E0" font-size="10">· spikes worden genegeerd → zie 03</text>
    <!-- visual: projection vs threshold -->
    <g transform="translate(255,60)">
      <rect x="0" y="0" width="185" height="140" rx="4" fill="#0A1420" stroke="#1E3A5F"/>
      <line x1="12" y1="40" x2="173" y2="40" stroke="#FFB84D" stroke-width="1.5" stroke-dasharray="5,4"/>
      <text x="166" y="34" fill="#FFB84D" font-size="8" text-anchor="end">drempel</text>
      <polyline points="12,120 40,112 60,100 80,84 100,66 118,52" fill="none" stroke="#39FF8A" stroke-width="2"/>
      <line x1="118" y1="52" x2="168" y2="41" stroke="#39FF8A" stroke-width="1.5" stroke-dasharray="3,3"/>
      <text x="60" y="132" fill="#39FF8A" font-size="8">kwartier-avg → projectie</text>
      <line x1="118" y1="52" x2="118" y2="90" stroke="#FF5C8A" stroke-width="2" marker-end="url(#aP)"/>
      <text x="126" y="86" fill="#FF5C8A" font-size="8">discharge = Δ</text>
    </g>
  </g>

  <!-- CARD 3: NIGHT-SAVE -->
  <g transform="translate(40,570)">
    <rect width="460" height="220" rx="8" fill="#12233B" stroke="#39FF8A" stroke-width="2" filter="url(#glow)"/>
    <text x="18" y="30" fill="#39FF8A" font-size="14" font-weight="bold">NACHTBESPARING</text>
    <text x="18" y="48" fill="#FF5C8A" font-size="10">night_save · venster instelbaar</text>
    <text x="18" y="80" fill="#E0E0E0" font-size="10">· 's nachts STANDBY — batterij wordt</text>
    <text x="18" y="96" fill="#E0E0E0" font-size="10">  gespaard voor de ochtendpiek</text>
    <text x="18" y="114" fill="#E0E0E0" font-size="10">· laden op surplus blijft toegestaan</text>
    <text x="18" y="132" fill="#E0E0E0" font-size="10">· overdag = zelfconsumptie</text>
    <text x="18" y="158" fill="#7A94B0" font-size="9">v2.2.0-fix: zette voorheen AUTO,</text>
    <text x="18" y="172" fill="#7A94B0" font-size="9">waardoor hij 's nachts tóch ontlaadde</text>
    <!-- visual: 24h timeline -->
    <g transform="translate(255,60)">
      <rect x="0" y="0" width="185" height="140" rx="4" fill="#0A1420" stroke="#1E3A5F"/>
      <rect x="14" y="52" width="39" height="26" fill="#12233B" stroke="#7A94B0" stroke-width="1"/>
      <rect x="53" y="52" width="104" height="26" fill="#39FF8A" opacity="0.55"/>
      <rect x="157" y="52" width="14" height="26" fill="#12233B" stroke="#7A94B0" stroke-width="1"/>
      <text x="14" y="94" fill="#7A94B0" font-size="8">00</text>
      <text x="53" y="94" fill="#7A94B0" font-size="8" text-anchor="middle">06</text>
      <text x="157" y="94" fill="#7A94B0" font-size="8" text-anchor="middle">22</text>
      <text x="171" y="94" fill="#7A94B0" font-size="8" text-anchor="end">24</text>
      <text x="105" y="46" fill="#39FF8A" font-size="8" text-anchor="middle">SELF-USE</text>
      <text x="33" y="46" fill="#7A94B0" font-size="8" text-anchor="middle">STANDBY</text>
      <text x="92" y="118" fill="#E0E0E0" font-size="8" text-anchor="middle">nacht: surplus-charge OK ✓</text>
    </g>
  </g>

  <!-- CARD 4: AUTO -->
  <g transform="translate(540,570)">
    <rect width="460" height="220" rx="8" fill="#12233B" stroke="#7A94B0" stroke-width="2" stroke-dasharray="7,5"/>
    <text x="18" y="30" fill="#E0E0E0" font-size="14" font-weight="bold">AUTO</text>
    <text x="18" y="48" fill="#FF5C8A" font-size="10">auto · passive</text>
    <text x="18" y="80" fill="#E0E0E0" font-size="10">· de integratie doet niets</text>
    <text x="18" y="98" fill="#E0E0E0" font-size="10">· SOFAR draait zijn eigen</text>
    <text x="18" y="114" fill="#E0E0E0" font-size="10">  self-use firmware-logica</text>
    <text x="18" y="140" fill="#7A94B0" font-size="9">alarm- en force-gates uit de</text>
    <text x="18" y="154" fill="#7A94B0" font-size="9">pipeline blijven wél actief</text>
    <!-- visual: hands-off chip -->
    <g transform="translate(255,60)">
      <rect x="0" y="0" width="185" height="140" rx="4" fill="#0A1420" stroke="#1E3A5F"/>
      <rect x="52" y="35" width="80" height="52" rx="5" fill="#12233B" stroke="#7A94B0" stroke-width="1.5"/>
      <text x="92" y="57" fill="#E0E0E0" font-size="9" text-anchor="middle">SOFAR</text>
      <text x="92" y="72" fill="#7A94B0" font-size="8" text-anchor="middle">FIRMWARE</text>
      <g stroke="#7A94B0" stroke-width="1.5">
        <line x1="62" y1="35" x2="62" y2="24"/><line x1="82" y1="35" x2="82" y2="24"/><line x1="102" y1="35" x2="102" y2="24"/><line x1="122" y1="35" x2="122" y2="24"/>
        <line x1="62" y1="87" x2="62" y2="98"/><line x1="82" y1="87" x2="82" y2="98"/><line x1="102" y1="87" x2="102" y2="98"/><line x1="122" y1="87" x2="122" y2="98"/>
      </g>
      <text x="92" y="122" fill="#7A94B0" font-size="8" text-anchor="middle" letter-spacing="2">[ HANDS OFF ]</text>
    </g>
  </g>

  <!-- CARD 5: FORCE CHARGE -->
  <g transform="translate(40,810)">
    <rect width="460" height="220" rx="8" fill="#12233B" stroke="#FF5C8A" stroke-width="2" filter="url(#glow)"/>
    <text x="18" y="30" fill="#FF5C8A" font-size="14" font-weight="bold">FORCEER LADEN</text>
    <text x="18" y="48" fill="#FF5C8A" font-size="10">force_charge · handmatige override</text>
    <text x="18" y="80" fill="#E0E0E0" font-size="10">· onvoorwaardelijk laden</text>
    <text x="18" y="98" fill="#E0E0E0" font-size="10">· rate = ingestelde force-rate</text>
    <text x="18" y="116" fill="#E0E0E0" font-size="10">· negeert net én PV</text>
    <!-- visual: battery filling -->
    <g transform="translate(255,60)">
      <rect x="0" y="0" width="185" height="140" rx="4" fill="#0A1420" stroke="#1E3A5F"/>
      <rect x="62" y="30" width="60" height="88" rx="5" fill="none" stroke="#FF5C8A" stroke-width="2"/>
      <rect x="80" y="22" width="24" height="8" rx="2" fill="#FF5C8A"/>
      <rect x="67" y="80" width="50" height="33" fill="#39FF8A" opacity="0.85"/>
      <rect x="67" y="58" width="50" height="18" fill="#39FF8A" opacity="0.35"/>
      <line x1="20" y1="74" x2="54" y2="74" stroke="#39FF8A" stroke-width="2.5" marker-end="url(#aG)"/>
      <text x="140" y="78" fill="#39FF8A" font-size="8">↑ vult</text>
      <text x="92" y="132" fill="#7A94B0" font-size="8" text-anchor="middle">rate = force_rate</text>
    </g>
  </g>

  <!-- CARD 6: FORCE DISCHARGE -->
  <g transform="translate(540,810)">
    <rect width="460" height="220" rx="8" fill="#12233B" stroke="#FF5C8A" stroke-width="2" filter="url(#glow)"/>
    <text x="18" y="30" fill="#FF5C8A" font-size="14" font-weight="bold">FORCEER ONTLADEN</text>
    <text x="18" y="48" fill="#FF5C8A" font-size="10">force_discharge · handmatige override</text>
    <text x="18" y="80" fill="#E0E0E0" font-size="10">· onvoorwaardelijk ontladen</text>
    <text x="18" y="98" fill="#E0E0E0" font-size="10">· stopt op minimum-SOC</text>
    <text x="18" y="116" fill="#E0E0E0" font-size="10">· rate = tekort + marge</text>
    <!-- visual: battery draining to min SOC -->
    <g transform="translate(255,60)">
      <rect x="0" y="0" width="185" height="140" rx="4" fill="#0A1420" stroke="#1E3A5F"/>
      <rect x="62" y="30" width="60" height="88" rx="5" fill="none" stroke="#FF5C8A" stroke-width="2"/>
      <rect x="80" y="22" width="24" height="8" rx="2" fill="#FF5C8A"/>
      <rect x="67" y="96" width="50" height="17" fill="#39FF8A" opacity="0.85"/>
      <line x1="60" y1="96" x2="124" y2="96" stroke="#FFB84D" stroke-width="1.5" stroke-dasharray="4,3"/>
      <text x="128" y="99" fill="#FFB84D" font-size="8">min-SOC</text>
      <line x1="130" y1="74" x2="164" y2="74" stroke="#FF5C8A" stroke-width="2.5" marker-end="url(#aP)"/>
      <text x="36" y="78" fill="#FF5C8A" font-size="8" text-anchor="end">leegt ↓</text>
      <text x="92" y="132" fill="#7A94B0" font-size="8" text-anchor="middle">rate = tekort + marge</text>
    </g>
  </g>

  <!-- ============ SECTION 3: QUARTER TRACKER ============ -->
  <text x="40" y="1082" fill="#FF5C8A" font-size="11" letter-spacing="2">03 · KWARTIERPIEK-TRACKER — WAAROM SPIKES NIET TELLEN</text>

  <g transform="translate(40,1098)">
    <rect width="960" height="290" rx="8" fill="#12233B" stroke="#1E3A5F" stroke-width="2"/>
    <text x="20" y="28" fill="#E0E0E0" font-size="10">Fluvius factureert op het hoogste gemiddelde importvermogen per klok-kwartier (:00 / :15 / :30 / :45) van de maand.</text>
    <text x="20" y="44" fill="#7A94B0" font-size="10">Tijdgewogen integratie · maandpiek op afgesloten kwartieren · maand-rollover · persistent via RestoreSensor.</text>

    <!-- chart -->
    <g transform="translate(50,62)">
      <rect x="0" y="0" width="860" height="180" fill="#0A1420" stroke="#1E3A5F" rx="4"/>
      <!-- x gridlines: 15 min quarter -->
      <g stroke="#1E3A5F" stroke-width="1">
        <line x1="215" y1="0" x2="215" y2="180"/><line x1="430" y1="0" x2="430" y2="180"/><line x1="645" y1="0" x2="645" y2="180"/>
      </g>
      <text x="8" y="196" fill="#7A94B0" font-size="9">:00</text>
      <text x="215" y="196" fill="#7A94B0" font-size="9" text-anchor="middle">:05</text>
      <text x="430" y="196" fill="#7A94B0" font-size="9" text-anchor="middle">:10</text>
      <text x="645" y="196" fill="#7A94B0" font-size="9" text-anchor="middle">:15</text>
      <text x="852" y="196" fill="#7A94B0" font-size="9" text-anchor="end">volgend kwartier →</text>
      <!-- threshold -->
      <line x1="10" y1="58" x2="850" y2="58" stroke="#FFB84D" stroke-width="1.5" stroke-dasharray="6,4"/>
      <text x="846" y="52" fill="#FFB84D" font-size="9" text-anchor="end">drempel (budget_w)</text>
      <!-- instantaneous import, spiky, with big spike -->
      <polyline points="10,140 60,132 100,138 140,125 170,131 200,118 230,124 260,40 285,36 305,122 350,112 400,118 440,104 480,110 520,98 560,104 600,92 645,96"
        fill="none" stroke="#FF5C8A" stroke-width="1.5" opacity="0.85"/>
      <text x="284" y="26" fill="#FF5C8A" font-size="9" text-anchor="middle">spike (60 s)</text>
      <!-- time-weighted average -->
      <polyline points="10,142 100,138 200,132 260,126 305,116 400,110 480,102 560,94 645,86"
        fill="none" stroke="#39FF8A" stroke-width="2.5" filter="url(#glow)"/>
      <text x="368" y="132" fill="#39FF8A" font-size="9">tijdgewogen kwartier-avg</text>
      <!-- projection -->
      <line x1="645" y1="86" x2="845" y2="60" stroke="#39FF8A" stroke-width="1.5" stroke-dasharray="4,4"/>
      <text x="742" y="60" fill="#39FF8A" font-size="9">projectie → einde kwartier</text>
      <!-- discharge intervention -->
      <line x1="645" y1="86" x2="645" y2="140" stroke="#FF5C8A" stroke-width="2.5" marker-end="url(#aP)"/>
      <text x="654" y="136" fill="#FF5C8A" font-size="9">DISCHARGE = exact Δ tot drempel</text>
      <!-- monthly peak marker -->
      <line x1="10" y1="72" x2="850" y2="72" stroke="#7A94B0" stroke-width="1" stroke-dasharray="2,5"/>
      <text x="14" y="68" fill="#7A94B0" font-size="9">monthly_peak_w</text>
    </g>
    <text x="20" y="276" fill="#7A94B0" font-size="9">Empirisch gevalideerd: 8000 W-spike van 60 s ⇒ géén discharge · constant 2600 W na 300 s ⇒ 150 W discharge (overshoot-compensatie, niet de naïeve 100 W).</text>
  </g>

  <!-- ============ FOOTER ============ -->
  <text x="40" y="1442" fill="#7A94B0" font-size="10" letter-spacing="1">Mad_Science_Lab/sofar-me3000sp-homeassistant · quarter.py + __init__.py</text>
  <text x="1000" y="1442" fill="#FF5C8A" font-size="10" text-anchor="end" letter-spacing="2">[ EVIL GENIUS APPROVED ]</text>
</svg>
